<svg width="14" height="14" viewBox="0 0 14 14" fill="none" xmlns="http://www.w3.org/2000/svg">
<path d="M13.4 7.0001C13.4 7.5892 12.9224 8.06676 12.3333 8.06676C11.7442 8.06676 11.2667 7.5892 11.2667 7.0001C11.2667 4.64368 9.35642 2.73343 7.00001 2.73343C4.64359 2.73343 2.73334 4.64368 2.73334 7.0001C2.73334 9.35651 4.64359 11.2668 7.00001 11.2668C7.58911 11.2668 8.06667 11.7443 8.06667 12.3334C8.06667 12.9225 7.58911 13.4001 7.00001 13.4001C3.46538 13.4001 0.600006 10.5347 0.600006 7.0001C0.600006 3.46548 3.46538 0.600098 7.00001 0.600098C10.5346 0.600098 13.4 3.46548 13.4 7.0001Z" fill="black"/>
<mask id="mask0_14808_35534" style="mask-type:luminance" maskUnits="userSpaceOnUse" x="0" y="0" width="14" height="14">
<path d="M13.4 7.0001C13.4 7.5892 12.9224 8.06676 12.3333 8.06676C11.7442 8.06676 11.2667 7.5892 11.2667 7.0001C11.2667 4.64368 9.35642 2.73343 7.00001 2.73343C4.64359 2.73343 2.73334 4.64368 2.73334 7.0001C2.73334 9.35651 4.64359 11.2668 7.00001 11.2668C7.58911 11.2668 8.06667 11.7443 8.06667 12.3334C8.06667 12.9225 7.58911 13.4001 7.00001 13.4001C3.46538 13.4001 0.600006 10.5347 0.600006 7.0001C0.600006 3.46548 3.46538 0.600098 7.00001 0.600098C10.5346 0.600098 13.4 3.46548 13.4 7.0001Z" fill="white"/>
</mask>
<g mask="url(#mask0_14808_35534)">
<rect x="-1" y="-1" width="16" height="16" fill="#475867"/>
</g>
</svg>
