<svg width="16" height="16" viewBox="0 0 16 16" fill="none" xmlns="http://www.w3.org/2000/svg">
<path fill-rule="evenodd" clip-rule="evenodd" d="M2.58355 11.1379C4.81252 13.3668 8.33652 13.5074 10.7134 11.5549L14.1832 15.0246C14.4164 15.2579 14.7939 15.2586 15.0262 15.0263C15.2586 14.7939 15.2578 14.4165 15.0246 14.1832L11.5548 10.7135C13.5074 8.33656 13.3668 4.81256 11.1378 2.5836C8.76634 0.212114 4.92894 0.204588 2.56674 2.56679C0.204542 4.92898 0.212068 8.76639 2.58355 11.1379ZM3.42495 10.2965C1.51999 8.3915 1.51395 5.309 3.41145 3.4115C5.30895 1.51399 8.39146 1.52004 10.2964 3.425C12.2014 5.32996 12.2074 8.41247 10.3099 10.31C8.41242 12.2075 5.32991 12.2014 3.42495 10.2965Z" fill="black"/>
<mask id="mask0_14808_35539" style="mask-type:luminance" maskUnits="userSpaceOnUse" x="0" y="0" width="16" height="16">
<path fill-rule="evenodd" clip-rule="evenodd" d="M2.58355 11.1379C4.81252 13.3668 8.33652 13.5074 10.7134 11.5549L14.1832 15.0246C14.4164 15.2579 14.7939 15.2586 15.0262 15.0263C15.2586 14.7939 15.2578 14.4165 15.0246 14.1832L11.5548 10.7135C13.5074 8.33656 13.3668 4.81256 11.1378 2.5836C8.76634 0.212114 4.92894 0.204588 2.56674 2.56679C0.204542 4.92898 0.212068 8.76639 2.58355 11.1379ZM3.42495 10.2965C1.51999 8.3915 1.51395 5.309 3.41145 3.4115C5.30895 1.51399 8.39146 1.52004 10.2964 3.425C12.2014 5.32996 12.2074 8.41247 10.3099 10.31C8.41242 12.2075 5.32991 12.2014 3.42495 10.2965Z" fill="white"/>
</mask>
<g mask="url(#mask0_14808_35539)">
<rect width="16" height="16" fill="#12344D"/>
</g>
</svg>
