<svg width="101" height="90" viewBox="0 0 101 90" fill="none" xmlns="http://www.w3.org/2000/svg">
<path d="M79.7191 17.9952H2.63322C1.28762 17.9952 0.204956 19.0779 0.204956 20.4235V78.0523C0.204956 79.3979 1.28762 80.4806 2.63322 80.4806H79.7191C81.0647 80.4806 82.1474 79.3979 82.1474 78.0523V20.4235C82.1474 19.0779 81.0647 17.9952 79.7191 17.9952V17.9952Z" fill="#F2F2F2"/>
<path d="M4.2417 67.3494V29.8891M86.2614 67.3494V57.7446M58.0657 13.9739H83.7868C84.4364 13.9739 85.0396 14.2369 85.4881 14.6854C85.9366 15.1339 86.1996 15.7526 86.1996 16.3867V51.9601" stroke="#525666" stroke-width="0.773333" stroke-linecap="round" stroke-linejoin="round"/>
<path d="M86.2459 67.3494V73.9846C86.2459 74.6342 85.983 75.2528 85.5345 75.7168C85.0705 76.1654 84.4673 76.4128 83.8331 76.4128H6.65446C6.00486 76.4128 5.3862 76.1499 4.9222 75.7168C4.47366 75.2528 4.2262 74.6342 4.2262 73.9846V67.3494H86.2459Z" fill="#BABCBE" stroke="#525666" stroke-width="0.773333" stroke-linecap="round" stroke-linejoin="round"/>
<path d="M72.7436 13.9739H6.59262C5.95849 13.9739 5.35529 14.2523 4.90675 14.7009C4.45822 15.1494 4.21075 15.7681 4.21075 16.4022V23.3622" stroke="#525666" stroke-width="0.773333" stroke-linecap="round" stroke-linejoin="round"/>
<path d="M64.7473 89.2347H67.5158M22.8171 89.2347H61.9478M33.1643 79.7227V89.2347M57.1841 79.7227V89.2347" stroke="#525666" stroke-width="0.773333" stroke-linecap="round" stroke-linejoin="round"/>
<path d="M98.743 15.7835V12.4891C98.743 11.7157 98.1089 11.0816 97.3355 11.0816H94.8918C94.7371 10.6176 94.5515 10.1845 94.335 9.75148L96.0673 8.01922C96.6241 7.46242 96.6241 6.56535 96.0673 6.02402L93.7937 3.75042C93.2369 3.19362 92.3398 3.19362 91.783 3.75042L90.0507 5.51362C89.6177 5.29708 89.1691 5.11148 88.7206 4.97228V2.49762C88.7206 1.72428 88.0865 1.09015 87.3131 1.09015H84.0806C83.3073 1.09015 82.6731 1.72428 82.6731 2.49762V4.98775C82.2246 5.12695 81.7761 5.31255 81.3585 5.52908L79.5953 3.75042C79.0385 3.19362 78.1259 3.19362 77.5846 3.75042L75.3883 6.00855C74.847 6.56535 74.847 7.44695 75.3883 7.98828L77.1979 9.79788C76.9969 10.2 76.8267 10.6331 76.703 11.0661H74.0273C73.2539 11.0661 72.6198 11.7003 72.6198 12.4736V15.7216C72.6198 16.4949 73.2539 17.1291 74.0273 17.1291H76.6257C76.7649 17.5467 76.9505 17.9643 77.1515 18.3664L75.2955 20.2224C74.7542 20.7637 74.7387 21.6608 75.2955 22.2021L77.4918 24.4603C78.0331 25.0171 78.9457 25.0325 79.5025 24.4757L81.3275 22.6661C81.7297 22.8517 82.1473 23.0219 82.5803 23.1611V25.7595C82.5803 26.5328 83.2145 27.167 83.9878 27.167H87.2203C87.9937 27.167 88.6278 26.5328 88.6278 25.7595V23.2075C89.0609 23.0683 89.4939 22.8982 89.8961 22.6816L91.6902 24.4757C92.247 25.0325 93.1441 25.0325 93.6854 24.4757L95.9899 22.1712C96.5313 21.6299 96.5467 20.7637 96.0209 20.2069L94.3814 18.4747C94.5979 18.0571 94.7681 17.624 94.9227 17.1755H97.351C98.1243 17.1755 98.7585 16.5413 98.7585 15.768L98.743 15.7835Z" fill="#B2D9CD"/>
<path d="M99.795 15.7216V11.9477C99.795 11.7931 99.7641 11.6539 99.7022 11.5147C99.6403 11.3755 99.563 11.2517 99.4547 11.1435C99.3465 11.0352 99.2227 10.9579 99.0835 10.896C98.9443 10.8341 98.7897 10.8187 98.6505 10.8187H95.9129C95.7737 10.3547 95.5881 9.90612 95.3715 9.45759L97.2894 7.53972C97.3977 7.43145 97.4905 7.30772 97.5523 7.16852C97.6142 7.02932 97.6451 6.87465 97.6451 6.71999C97.6451 6.56532 97.6142 6.41065 97.5523 6.27145C97.4905 6.13225 97.4131 6.00852 97.2894 5.90025L94.6446 3.25545C94.5363 3.14719 94.4126 3.05439 94.2734 2.99252C94.1342 2.93065 93.9795 2.89972 93.8249 2.89972C93.6702 2.89972 93.5155 2.93065 93.3763 2.99252C93.2371 3.05439 93.1134 3.14719 93.0051 3.25545L91.0254 5.17332C90.6078 4.98772 90.1902 4.83305 89.7571 4.69385V1.90985C89.7571 1.60052 89.6334 1.30665 89.4169 1.10559C89.2003 0.889053 88.9065 0.76532 88.6126 0.76532H84.7769C84.4675 0.76532 84.1737 0.889053 83.9726 1.10559C83.7561 1.32212 83.6323 1.61599 83.6323 1.90985V4.70932C83.1838 4.86399 82.7507 5.04959 82.3331 5.26612L80.3689 3.30185C80.2606 3.19359 80.1369 3.10079 79.9977 3.03892C79.8585 2.97705 79.7038 2.94612 79.5491 2.94612C79.3945 2.94612 79.2398 2.97705 79.1006 3.03892C78.9614 3.10079 78.8377 3.19359 78.7294 3.30185L76.1465 5.91572C76.0382 6.02399 75.9454 6.14772 75.8835 6.28692C75.8217 6.42612 75.7907 6.58079 75.7907 6.73545C75.7907 6.89012 75.8217 7.04479 75.8835 7.18399C75.9454 7.32319 76.0227 7.44692 76.1465 7.55519L78.1262 9.64319C77.9251 10.0608 77.7395 10.4939 77.6003 10.9424H74.7854C74.4915 10.9424 74.1977 11.0661 73.9811 11.2672C73.7646 11.4837 73.6409 11.7621 73.6409 12.0715V15.8453C73.6409 16.1547 73.7646 16.4485 73.9811 16.6496C74.1977 16.8661 74.4915 16.9899 74.7854 16.9899H77.6467C77.8014 17.4075 77.9715 17.8251 78.1417 18.2427L76.0537 20.3307C75.9454 20.4389 75.8526 20.5627 75.7907 20.7019C75.7289 20.8411 75.6979 20.9957 75.6979 21.1504C75.6979 21.3051 75.7289 21.4597 75.7907 21.5989C75.8526 21.7381 75.9299 21.8619 76.0537 21.9701L78.6985 24.6459C78.915 24.8624 79.2089 24.9707 79.5182 24.9707C79.8275 24.9707 80.1214 24.8469 80.3379 24.6459L82.4259 22.5579C82.8281 22.7589 83.2302 22.9291 83.6633 23.0837V25.9141C83.6633 26.2235 83.787 26.5173 84.0035 26.7184C84.2201 26.9349 84.5139 27.0587 84.8078 27.0587H88.5817C88.891 27.0587 89.1849 26.9349 89.3859 26.7184C89.6025 26.5019 89.7262 26.208 89.7262 25.9141V22.9755C90.1593 22.8363 90.5923 22.6507 90.9945 22.4496L92.9742 24.5376C93.1907 24.7541 93.4846 24.8624 93.7939 24.8624C94.1033 24.8624 94.3971 24.7387 94.6137 24.5376L97.2894 21.7845C97.3977 21.6763 97.4905 21.5525 97.5523 21.4133C97.6142 21.2741 97.6451 21.1195 97.6451 20.9648C97.6451 20.8101 97.6142 20.6555 97.5523 20.5163C97.4905 20.3771 97.4131 20.2533 97.2894 20.1451L95.3561 18.1808C95.5726 17.7632 95.7582 17.3301 95.8974 16.8816H98.6505C98.9598 16.8816 99.2537 16.7579 99.4547 16.5413C99.6713 16.3248 99.795 16.0309 99.795 15.7371V15.7216Z" stroke="#40A084" stroke-width="0.773333" stroke-linecap="round" stroke-linejoin="round"/>
<path d="M86.7101 19.3254C89.7084 19.3254 92.1389 16.8948 92.1389 13.8966C92.1389 10.8983 89.7084 8.46777 86.7101 8.46777C83.7119 8.46777 81.2813 10.8983 81.2813 13.8966C81.2813 16.8948 83.7119 19.3254 86.7101 19.3254Z" fill="white"/>
<path d="M20.5899 26.7494H13.8155C13.4907 26.7494 13.2278 27.0123 13.2278 27.3371V31.8689C13.2278 32.1937 13.4907 32.4566 13.8155 32.4566H20.5899C20.9147 32.4566 21.1777 32.1937 21.1777 31.8689V27.3371C21.1777 27.0123 20.9147 26.7494 20.5899 26.7494Z" fill="white"/>
<path d="M20.5899 36.7718H13.8155C13.4907 36.7718 13.2278 37.0347 13.2278 37.3595V41.8913C13.2278 42.2161 13.4907 42.479 13.8155 42.479H20.5899C20.9147 42.479 21.1777 42.2161 21.1777 41.8913V37.3595C21.1777 37.0347 20.9147 36.7718 20.5899 36.7718Z" fill="white"/>
<path d="M20.5899 46.8096H13.8155C13.4907 46.8096 13.2278 47.0726 13.2278 47.3974V51.9291C13.2278 52.2539 13.4907 52.5168 13.8155 52.5168H20.5899C20.9147 52.5168 21.1777 52.2539 21.1777 51.9291V47.3974C21.1777 47.0726 20.9147 46.8096 20.5899 46.8096Z" fill="white"/>
<path d="M20.5899 56.832H13.8155C13.4907 56.832 13.2278 57.0949 13.2278 57.4197V61.9514C13.2278 62.2762 13.4907 62.5392 13.8155 62.5392H20.5899C20.9147 62.5392 21.1777 62.2762 21.1777 61.9514V57.4197C21.1777 57.0949 20.9147 56.832 20.5899 56.832Z" fill="white"/>
<path d="M70.2379 26.9659H26.7921C26.3821 26.9659 26.0497 27.2983 26.0497 27.7083V31.2965C26.0497 31.7066 26.3821 32.0389 26.7921 32.0389H70.2379C70.648 32.0389 70.9803 31.7066 70.9803 31.2965V27.7083C70.9803 27.2983 70.648 26.9659 70.2379 26.9659Z" fill="white"/>
<path d="M70.2379 35.2406H26.7921C26.3821 35.2406 26.0497 35.573 26.0497 35.983V61.9515C26.0497 62.3615 26.3821 62.6939 26.7921 62.6939H70.2379C70.648 62.6939 70.9803 62.3615 70.9803 61.9515V35.983C70.9803 35.573 70.648 35.2406 70.2379 35.2406Z" fill="white"/>
<path d="M20.0177 25.3419H22.2449C22.3996 25.3419 22.5543 25.4037 22.678 25.512C22.7863 25.6203 22.8636 25.7749 22.8636 25.9451V30.6005C22.8636 30.7552 22.8017 30.9099 22.678 31.0336C22.5697 31.1419 22.4151 31.2037 22.2449 31.2037H14.3569C14.2023 31.2037 14.0476 31.1419 13.9239 31.0336C13.8156 30.9253 13.7383 30.7707 13.7383 30.6005V25.9451C13.7383 25.7904 13.8001 25.6357 13.9239 25.512C14.0321 25.4037 14.1868 25.3419 14.3569 25.3419H17.342" stroke="#37ADC9" stroke-width="0.773333" stroke-linecap="round" stroke-linejoin="round"/>
<path d="M13.9084 25.5429H15.5479V31.0181H13.9084V25.5429Z" fill="#37ADC9" stroke="#37ADC9" stroke-width="0.773333" stroke-linecap="round" stroke-linejoin="round"/>
<path d="M20.0177 35.3643H22.2449C22.3996 35.3643 22.5543 35.4261 22.678 35.5344C22.7863 35.6427 22.8636 35.7973 22.8636 35.9675V40.6229C22.8636 40.7776 22.8017 40.9323 22.678 41.056C22.5697 41.1643 22.4151 41.2261 22.2449 41.2261H14.3569C14.2023 41.2261 14.0476 41.1643 13.9239 41.056C13.8156 40.9477 13.7383 40.7931 13.7383 40.6229V35.9675C13.7383 35.8128 13.8001 35.6581 13.9239 35.5344C14.0321 35.4261 14.1868 35.3643 14.3569 35.3643H17.342" stroke="#37ADC9" stroke-width="0.773333" stroke-linecap="round" stroke-linejoin="round"/>
<path d="M13.9084 35.5654H15.5479V41.0406H13.9084V35.5654Z" fill="#37ADC9" stroke="#37ADC9" stroke-width="0.773333" stroke-linecap="round" stroke-linejoin="round"/>
<path d="M20.0177 45.3867H22.2449C22.3996 45.3867 22.5543 45.4485 22.678 45.5568C22.7863 45.6651 22.8636 45.8197 22.8636 45.9899V50.6453C22.8636 50.8 22.8017 50.9547 22.678 51.0784C22.5697 51.1867 22.4151 51.2485 22.2449 51.2485H14.3569C14.2023 51.2485 14.0476 51.1867 13.9239 51.0784C13.8156 50.9701 13.7383 50.8155 13.7383 50.6453V45.9899C13.7383 45.8352 13.8001 45.6805 13.9239 45.5568C14.0321 45.4485 14.1868 45.3867 14.3569 45.3867H17.342" stroke="#37ADC9" stroke-width="0.773333" stroke-linecap="round" stroke-linejoin="round"/>
<path d="M13.9084 45.5877H15.5479V51.0629H13.9084V45.5877V45.5877Z" fill="#37ADC9" stroke="#37ADC9" stroke-width="0.773333" stroke-linecap="round" stroke-linejoin="round"/>
<path d="M20.0177 55.4091H22.2449C22.3996 55.4091 22.5543 55.4709 22.678 55.5792C22.7863 55.6875 22.8636 55.8421 22.8636 56.0123V60.6677C22.8636 60.8224 22.8017 60.9771 22.678 61.1008C22.5697 61.2091 22.4151 61.2709 22.2449 61.2709H14.3569C14.2023 61.2709 14.0476 61.2091 13.9239 61.1008C13.8156 60.9925 13.7383 60.8379 13.7383 60.6677V56.0123C13.7383 55.8576 13.8001 55.7029 13.9239 55.5792C14.0321 55.4709 14.1868 55.4091 14.3569 55.4091H17.342" stroke="#37ADC9" stroke-width="0.773333" stroke-linecap="round" stroke-linejoin="round"/>
<path d="M13.9084 55.6101H15.5479V61.0853H13.9084V55.6101Z" fill="#37ADC9" stroke="#37ADC9" stroke-width="0.773333" stroke-linecap="round" stroke-linejoin="round"/>
<path d="M71.4289 25.5429H27.8902C27.5058 25.5429 27.1942 25.8545 27.1942 26.2389V29.92C27.1942 30.3044 27.5058 30.616 27.8902 30.616H71.4289C71.8133 30.616 72.1249 30.3044 72.1249 29.92V26.2389C72.1249 25.8545 71.8133 25.5429 71.4289 25.5429Z" stroke="#37ADC9" stroke-width="0.773333" stroke-linecap="round" stroke-linejoin="round"/>
<path d="M71.4289 33.8176H27.8902C27.5058 33.8176 27.1942 34.1292 27.1942 34.5136V60.575C27.1942 60.9593 27.5058 61.271 27.8902 61.271H71.4289C71.8133 61.271 72.1249 60.9593 72.1249 60.575V34.5136C72.1249 34.1292 71.8133 33.8176 71.4289 33.8176Z" stroke="#37ADC9" stroke-width="0.757867" stroke-linecap="round" stroke-linejoin="round"/>
</svg>
