<svg width="64" height="63" viewBox="0 0 64 63" fill="none" xmlns="http://www.w3.org/2000/svg">
<path fill-rule="evenodd" clip-rule="evenodd" d="M31.9531 15H43.9648C46.217 15 48 16.783 48 19.0352V31.0469C48 39.868 40.868 47 32.0469 47H31.9531C23.132 47 16 39.868 16 31.0469C16 22.2258 23.132 15.0938 31.9531 15Z" fill="#1C92CB"/>
<path fill-rule="evenodd" clip-rule="evenodd" d="M32.7996 40.4998C32.9996 40.6998 33.2996 40.5998 33.4996 40.3998L38.8996 32.8998L40.0996 31.1998C40.2996 30.8998 40.1996 30.4998 39.9996 30.2998C39.8996 30.1998 39.7996 30.1998 39.5996 30.1998H31.4996L33.4996 24.1998C33.5996 23.9998 33.4996 23.6998 33.2996 23.5998C33.0996 23.4998 32.7996 23.5998 32.6996 23.7998L27.2996 31.2998L25.9996 32.8998C25.7996 33.1998 25.8996 33.5998 26.0996 33.7998C26.1996 33.8998 26.2996 33.8998 26.4996 33.8998H34.5996L32.5996 39.8998C32.4996 40.0998 32.5996 40.3998 32.7996 40.4998V40.4998Z" fill="white"/>
</svg>
