<svg width="32" height="32" viewBox="0 0 32 32" fill="none" xmlns="http://www.w3.org/2000/svg">
<path fill-rule="evenodd" clip-rule="evenodd" d="M20.1644 19.324L20.1392 19.4792C19.9304 20.8577 17.8572 23.0359 16.1464 24.4835L16.066 24.5504L15.9868 24.4835C15.4757 24.052 14.4847 23.173 13.5861 22.1411C12.6527 21.0729 12.102 20.1566 11.9928 19.4917L11.9724 14.4591H20.1644V19.324ZM12.0624 12.7407C12.2471 12.0022 12.6611 11.3385 13.2561 10.8208L13.4565 10.6396L13.712 10.4731C15.0918 9.57369 17.0246 9.57369 18.4067 10.4776L18.6263 10.6147L18.8638 10.8208C19.4649 11.3441 19.8776 12.009 20.0564 12.7453L20.09 12.8846H12.0588L12.0624 12.7407ZM25.9376 21.4841C26.2279 21.2077 26.2303 20.7875 25.9376 20.5089L24.9886 19.6491C24.3311 19.042 23.1398 18.5855 22.2171 18.5855H21.6653V17.2149H22.2171C22.7438 17.2149 23.5417 17.5185 23.9244 17.8663L24.8578 18.7282C25.0042 18.8551 25.1877 18.9242 25.3953 18.9231C25.5933 18.9185 25.7816 18.8415 25.9232 18.7067C26.1991 18.4417 26.1991 18.0226 25.922 17.7518L24.9886 16.8978C24.3311 16.2918 23.1386 15.8342 22.2171 15.8342H21.6653V14.4636H22.2171C22.745 14.4636 23.5429 14.7694 23.9244 15.1172L24.853 15.978C25.123 16.2352 25.6389 16.2238 25.9232 15.9792C26.0636 15.8455 26.1404 15.6722 26.1392 15.491C26.1392 15.3097 26.0612 15.1364 25.9196 15.0039L24.9874 14.143C24.3311 13.537 23.1386 13.0794 22.2171 13.0794H21.6389L21.6269 12.9786C21.4985 11.9252 21.0234 10.9477 20.2495 10.1502L20.1716 10.0698L20.5375 9.73114C21.1853 9.12967 21.6557 8.21331 21.6557 7.54955V6.68982C21.6557 6.30923 21.3185 6 20.9046 6C20.4907 6 20.1548 6.30923 20.1548 6.68982V7.54955C20.1548 7.77835 19.8824 8.37755 19.4709 8.76154L19.0066 9.19084L18.9286 9.1478C17.1854 8.19066 14.9346 8.19066 13.1914 9.1478L13.1122 9.19084L12.6479 8.76154C12.2363 8.38662 11.9628 7.78628 11.9628 7.55408V6.68982C11.9628 6.50632 11.886 6.33302 11.7444 6.20275C11.4613 5.9411 10.9658 5.9411 10.6827 6.20275C10.5411 6.33302 10.4643 6.50632 10.4643 6.68982V7.54955C10.4643 8.21444 10.9358 9.13194 11.5861 9.73114L11.952 10.0698L11.874 10.1502C11.105 10.9431 10.6287 11.9218 10.4955 12.9797L10.4835 13.0794H9.91601C8.991 13.0794 7.80324 13.537 7.15057 14.143L6.21836 15.0039C6.07678 15.1342 6 15.3052 6 15.4864C6 15.6699 6.07558 15.841 6.21356 15.969C6.5135 16.2363 6.9778 16.2374 7.27774 15.9724L8.21356 15.1081C8.59028 14.7604 9.38812 14.4545 9.92081 14.4545H10.4727V15.8262H9.92081C8.9958 15.8262 7.80804 16.2827 7.15537 16.8887L6.22316 17.7541C6.08278 17.881 6 18.0622 6 18.2412C6 18.4258 6.08038 18.6048 6.22196 18.7316C6.5183 18.9933 6.9826 18.9933 7.27774 18.7305L8.21715 17.8674C8.59508 17.5185 9.39292 17.2149 9.92561 17.2149H10.4787V18.5855H9.92561C9.0018 18.5855 7.81284 19.042 7.16017 19.648L6.22795 20.5043C6.08518 20.6369 6.0096 20.8068 6.0096 20.9925C6.0096 21.176 6.08518 21.3471 6.22316 21.4739C6.52669 21.7424 6.9922 21.7435 7.28734 21.4807L8.22195 20.6187C8.59868 20.2699 9.39772 19.964 9.93041 19.964H10.5855L10.6083 20.049C10.9022 21.0922 11.7492 22.3416 13.1278 23.7631C13.6197 24.2683 14.4379 25.059 15.5441 25.9527L15.5981 25.9957C15.8728 26.2132 16.3143 26.2052 16.5699 25.9991C17.0066 25.6559 20.8494 22.5806 21.5633 20.0535L21.5873 19.9686H22.2363C22.763 19.9686 23.5621 20.2744 23.9436 20.6221L24.877 21.483C25.1745 21.7401 25.6413 21.739 25.9376 21.4841Z" fill="#BBDCFE"/>
</svg>
