<svg width="32" height="32" viewBox="0 0 32 32" fill="none" xmlns="http://www.w3.org/2000/svg">
<path d="M16.0781 26.1562C15.5857 26.1547 15.0941 26.1209 14.6068 26.0495C13.704 25.9174 12.8199 25.6616 11.9863 25.2907C10.987 24.8463 10.0621 24.2376 9.25717 23.4972C8.42465 22.7314 7.72189 21.826 7.18796 20.8288C6.73117 19.9756 6.39889 19.0566 6.20488 18.1085C5.98235 17.021 5.94111 15.8965 6.08108 14.7954C6.21188 13.7664 6.503 12.7589 6.94185 11.819C7.44687 10.7374 8.14572 9.7482 8.99476 8.90921C9.88788 8.02666 10.9451 7.31259 12.0986 6.81634C12.7253 6.54676 13.3794 6.3415 14.0478 6.20474C14.6729 6.07682 15.31 6.0089 15.948 6.00082C16.5888 5.99271 17.2304 6.04468 17.8613 6.15738C18.5348 6.27769 19.1958 6.46714 19.8307 6.72203C20.9973 7.19034 22.0726 7.87945 22.9875 8.74139C23.8556 9.55925 24.5774 10.5305 25.1082 11.5987C25.5685 12.5249 25.8838 13.5218 26.04 14.5442C26.2045 15.6212 26.1944 16.7254 26.0096 17.7992C25.8449 18.7561 25.5403 19.688 25.1082 20.5576C24.6043 21.5715 23.9284 22.4984 23.1183 23.2894C22.3076 24.081 21.3639 24.7351 20.3371 25.2145C19.4931 25.6086 18.5945 25.8839 17.6746 26.0304C17.2107 26.1043 16.7426 26.144 16.2731 26.1544C16.2081 26.1554 16.1431 26.156 16.0781 26.1562ZM16.0781 24.8125C16.5054 24.8111 16.9319 24.7818 17.3548 24.7199C18.1365 24.6055 18.902 24.384 19.6238 24.063C20.506 23.6706 21.3212 23.1304 22.0278 22.4726C22.7458 21.8042 23.3506 21.0155 23.8084 20.1478C24.1912 19.4223 24.4704 18.6428 24.6349 17.8391C24.8316 16.8777 24.8649 15.8828 24.735 14.9102C24.6186 14.0381 24.369 13.1848 23.9968 12.3875C23.559 11.4498 22.953 10.5924 22.217 9.86503C21.4428 9.10002 20.5264 8.48087 19.5265 8.05073C18.4747 7.5982 17.3359 7.35896 16.1912 7.34446C15.042 7.32991 13.8929 7.54079 12.8261 7.96905C11.8312 8.36843 10.913 8.95324 10.1284 9.68362C9.35872 10.4001 8.71935 11.2549 8.25136 12.1967C7.85282 12.9987 7.57982 13.8618 7.44455 14.7471C7.29903 15.6995 7.31091 16.6766 7.48032 17.625C7.62805 18.4521 7.8966 19.2568 8.27505 20.0069C8.70927 20.8675 9.28699 21.6545 9.97664 22.3279C10.6668 23.0018 11.468 23.5609 12.3396 23.9744C13.0513 24.312 13.8087 24.5519 14.585 24.6855C15.004 24.7576 15.4274 24.7975 15.8523 24.8096C15.9276 24.8113 16.0028 24.8123 16.0781 24.8125ZM18.5557 18.5817C18.6024 18.6573 18.6458 18.7352 18.6854 18.8149C18.8186 19.0828 18.9099 19.3712 18.9551 19.667C19.0017 19.9719 18.9998 20.2842 18.9493 20.5884C18.9043 20.8598 18.8204 21.1245 18.7009 21.3722C18.4158 21.9631 17.9301 22.4484 17.339 22.733C17.0913 22.8524 16.8266 22.9361 16.5553 22.9811C16.4216 23.0032 16.2869 23.0151 16.1516 23.0194C16.114 23.0201 16.1142 23.0201 16.0768 23.0203C15.9408 23.0195 15.8053 23.011 15.6706 22.9921C15.3974 22.9539 15.13 22.8765 14.8786 22.7629C14.2808 22.4928 13.7835 22.0192 13.4841 21.4355C13.359 21.1914 13.2687 20.9296 13.217 20.6601C13.159 20.3574 13.1494 20.0454 13.1883 19.7396C13.2261 19.4419 13.3104 19.1505 13.4374 18.8786C13.5858 18.5609 13.7921 18.2709 14.043 18.026C14.3026 17.7726 14.6094 17.5682 14.9435 17.4269C15.2897 17.2805 15.6636 17.2029 16.0393 17.1981C16.4163 17.1933 16.7934 17.2617 17.1442 17.4C17.302 17.4622 17.4541 17.5384 17.5986 17.6271C18.5596 16.6387 19.5535 15.6824 20.5283 14.7076C20.5496 14.6872 20.571 14.6676 20.5944 14.6496C20.6487 14.608 20.7093 14.5747 20.7736 14.5513C20.8563 14.5212 20.9448 14.5076 21.0327 14.5114C21.1108 14.5148 21.1883 14.532 21.2605 14.5619C21.3237 14.5881 21.3829 14.624 21.4353 14.668C21.5862 14.7946 21.6753 14.9856 21.6753 15.1826C21.6753 15.2413 21.6676 15.2999 21.6524 15.3565C21.6321 15.4321 21.5986 15.504 21.5538 15.568C21.5369 15.5922 21.5182 15.6144 21.4988 15.6366C20.539 16.6391 19.5403 17.6035 18.5557 18.5817ZM16.0768 21.6766C16.299 21.6752 16.5187 21.6301 16.7215 21.5384C17.0264 21.4006 17.2835 21.1643 17.4468 20.8724C17.5184 20.7446 17.5717 20.6067 17.6047 20.464C17.6467 20.2827 17.6557 20.0938 17.6322 19.9092C17.6127 19.7558 17.5703 19.6055 17.5066 19.4646C17.4286 19.2923 17.3191 19.1346 17.1854 19.0009C17.0471 18.8627 16.8832 18.7504 16.7041 18.6721C16.513 18.5885 16.3057 18.5444 16.0972 18.5418C15.8878 18.5391 15.6785 18.578 15.4845 18.6572C15.3034 18.7312 15.1368 18.8396 14.9952 18.9745C14.8583 19.1049 14.7451 19.2599 14.663 19.4302C14.5961 19.569 14.55 19.7177 14.5268 19.8701C14.4996 20.0478 14.5028 20.2303 14.5367 20.4069C14.5644 20.5513 14.6128 20.6915 14.6798 20.8223C14.8354 21.1256 15.0904 21.3744 15.3976 21.5223C15.5973 21.6185 15.8148 21.6691 16.036 21.6761C16.0565 21.6764 16.0564 21.6764 16.0768 21.6766ZM22.0195 14.0665C22.001 14.0656 21.9825 14.0655 21.964 14.0639C21.9271 14.0606 21.8906 14.0542 21.8547 14.0449C21.7108 14.0075 21.5815 13.9219 21.4909 13.804C21.4571 13.76 21.4317 13.712 21.4056 13.6633C21.3843 13.6238 21.3784 13.6135 21.3566 13.5742C21.3316 13.53 21.3062 13.4861 21.2805 13.4423C21.1588 13.2395 21.0273 13.0432 20.8836 12.8554C20.5665 12.4409 20.196 12.0675 19.7839 11.7474C19.2748 11.3519 18.7027 11.0383 18.0949 10.8233C17.1946 10.5049 16.2202 10.406 15.2738 10.5315C14.8268 10.5908 14.3867 10.7004 13.9643 10.858C13.2507 11.1243 12.5899 11.5272 12.0249 12.0378C11.6628 12.365 11.3401 12.7359 11.0664 13.14C10.9425 13.3228 10.8297 13.5125 10.7256 13.7073L10.6974 13.7551C10.669 13.7954 10.663 13.8065 10.6297 13.8431C10.5799 13.8978 10.5209 13.9442 10.4559 13.9798C10.391 14.0154 10.3201 14.0402 10.2471 14.0527C10.1924 14.0622 10.1365 14.0648 10.0811 14.0605C9.87615 14.0446 9.68585 13.9325 9.57253 13.7611C9.53168 13.6992 9.50119 13.6307 9.48262 13.559C9.45007 13.4332 9.45492 13.2989 9.49645 13.1758C9.51226 13.129 9.51907 13.1184 9.54049 13.074C9.56933 13.02 9.59862 12.9663 9.62837 12.9128C9.76078 12.6794 9.90371 12.4525 10.0598 12.2341C10.4061 11.7495 10.8109 11.3068 11.2626 10.9186C11.9376 10.3385 12.7169 9.88134 13.5535 9.57731C14.6693 9.17182 15.8802 9.04349 17.0568 9.19944C17.646 9.27753 18.2254 9.4271 18.7786 9.64437C19.53 9.9395 20.2315 10.3591 20.8478 10.8804C21.3344 11.292 21.7676 11.7662 22.1333 12.2881C22.2995 12.5251 22.4504 12.772 22.5886 13.0262L22.6166 13.0786C22.6379 13.123 22.6448 13.1336 22.6605 13.1805C22.6782 13.2331 22.6894 13.288 22.6936 13.3434C22.6978 13.3987 22.6952 13.4546 22.6857 13.5094C22.6506 13.7119 22.5212 13.8908 22.3398 13.9875C22.2907 14.0137 22.2385 14.0337 22.1846 14.047C22.1366 14.0588 22.124 14.0588 22.075 14.0646C22.0565 14.0652 22.038 14.0659 22.0195 14.0665Z" fill="#BBDCFE"/>
</svg>
