<svg width="32" height="32" viewBox="0 0 32 32" fill="none" xmlns="http://www.w3.org/2000/svg">
<path d="M23.7108 9C25.0614 9 26.1562 10.1386 26.1562 11.5432V13.2985L25.5044 13.672C24.8154 14.0667 24.3926 14.7772 24.3926 15.5508C24.3926 16.3244 24.8154 17.0348 25.5044 17.4296L26.1562 17.8031V19.5583C26.1562 20.9629 25.0614 22.1016 23.7108 22.1016H8.44543C7.09486 22.1016 6 20.9629 6 19.5583V17.8031L6.65188 17.4296C7.34085 17.0348 7.76367 16.3244 7.76367 15.5508C7.76367 14.7772 7.34085 14.0667 6.65188 13.672L6 13.2985V11.5432C6 10.1386 7.09486 9 8.44543 9H23.7108ZM23.7108 10.3102H8.44543C7.7906 10.3102 7.25977 10.8622 7.25977 11.5432V12.5244C8.31409 13.1285 9.02344 14.2576 9.02344 15.5508C9.02344 16.844 8.31409 17.973 7.25977 18.5771V19.5583C7.25977 20.2393 7.7906 20.7914 8.44543 20.7914H23.7108C24.3656 20.7914 24.8965 20.2393 24.8965 19.5583V18.5771C23.8422 17.973 23.1328 16.844 23.1328 15.5508C23.1328 14.2576 23.8422 13.1285 24.8965 12.5244V11.5432C24.8965 10.8622 24.3656 10.3102 23.7108 10.3102ZM19.3016 12.1381C20.6522 12.1381 21.7471 13.2768 21.7471 14.6814V16.4077C21.7471 17.8123 20.6522 18.9509 19.3016 18.9509H12.8546C11.504 18.9509 10.4092 17.8123 10.4092 16.4077V14.6814C10.4092 13.2768 11.504 12.1381 12.8546 12.1381H19.3016ZM19.3016 13.4483H12.8546C12.1998 13.4483 11.6689 14.0003 11.6689 14.6814V16.4077C11.6689 17.0887 12.1998 17.6408 12.8546 17.6408H19.3016C19.9565 17.6408 20.4873 17.0887 20.4873 16.4077V14.6814C20.4873 14.0003 19.9565 13.4483 19.3016 13.4483Z" fill="#BBDCFE"/>
</svg>
