<svg width="64" height="40" viewBox="0 0 64 40" fill="none" xmlns="http://www.w3.org/2000/svg">
<rect width="64" height="40" fill="#12344D"/>
<rect x="12" width="40" height="40" rx="8" fill="white"/>
<path d="M31.79 15.7748C29.4133 15.7748 27.4866 17.7014 27.4866 20.0781C27.4866 22.4548 29.4133 24.3815 31.79 24.3815C34.1666 24.3815 36.0933 22.4548 36.0933 20.0781C36.0878 17.7037 34.1643 15.7803 31.79 15.7748ZM31.79 22.9705C30.6201 22.9705 29.5654 22.2658 29.1177 21.185C28.67 20.1042 28.9175 18.8601 29.7447 18.0329C30.5719 17.2056 31.816 16.9582 32.8968 17.4059C33.9777 17.8536 34.6824 18.9082 34.6824 20.0781C34.6769 21.6733 33.3851 22.965 31.79 22.9705ZM41.3239 22.5372L39.8525 21.3077C39.9735 20.4924 39.9735 19.6638 39.8525 18.8486L41.344 17.6191C41.6058 17.3974 41.6735 17.0211 41.5053 16.7221L39.5501 13.356C39.3761 13.0603 39.0146 12.9327 38.6935 13.0537L36.829 13.7289C36.1872 13.2129 35.47 12.7982 34.7025 12.4994L34.4204 10.5845C34.3615 10.2465 34.0681 10 33.725 10H29.8449C29.5033 10.0039 29.212 10.2487 29.1495 10.5845L28.8371 12.4994C28.0816 12.7974 27.3776 13.2123 26.7509 13.7289L24.8865 13.0234C24.5654 12.9025 24.2038 13.0301 24.0298 13.3258L22.0948 16.7221C21.9223 17.0204 21.9905 17.3996 22.2561 17.6191L23.7275 18.8385C23.593 19.6595 23.593 20.4968 23.7275 21.3177L22.2561 22.5372C21.9942 22.7589 21.9266 23.1352 22.0948 23.4341L24.0298 26.8002C24.2066 27.0926 24.5653 27.2192 24.8865 27.1026L26.7509 26.4273C27.3899 26.9476 28.1077 27.3627 28.8774 27.6569L29.1999 29.5717C29.2587 29.9097 29.5522 30.1562 29.8953 30.1562H33.7754C34.117 30.1524 34.4082 29.9076 34.4707 29.5717L34.7832 27.6569C35.5208 27.3478 36.2099 26.9337 36.829 26.4273L38.6532 27.1026C38.9742 27.2235 39.3358 27.0959 39.5098 26.8002L41.4448 23.4341C41.6269 23.1453 41.5759 22.7675 41.3239 22.5372ZM38.6229 25.5606L36.9802 24.9459C36.7344 24.8515 36.4563 24.9064 36.2647 25.087C35.576 25.6993 34.7703 26.1656 33.8963 26.4576C33.6451 26.5361 33.461 26.7515 33.4226 27.0119L33.1304 28.7352H30.4496L30.1573 27.0119C30.119 26.7515 29.9349 26.5361 29.6836 26.4576C28.8121 26.1746 28.0066 25.7187 27.3153 25.1172C27.1225 24.9388 26.8458 24.8842 26.5997 24.9761L24.957 25.5909L23.6166 23.2729L24.957 22.1643C25.1618 21.9963 25.2552 21.7277 25.1989 21.4689C25.0109 20.5648 25.0109 19.6317 25.1989 18.7277C25.2433 18.4786 25.1511 18.2248 24.957 18.0625L23.6166 16.9035L24.957 14.5855L26.5997 15.2003C26.8495 15.287 27.1268 15.2245 27.3153 15.0391C28.0057 14.4339 28.8113 13.9746 29.6836 13.6886C29.9349 13.6101 30.119 13.3947 30.1573 13.1343L30.4496 11.4109H33.1304L33.4226 13.1343C33.461 13.3947 33.6451 13.6101 33.8963 13.6886C34.766 13.9805 35.5705 14.4392 36.2647 15.0391C36.4574 15.2174 36.7342 15.272 36.9802 15.1802L38.6229 14.5654L39.9633 16.8834L38.6129 18.0625C38.4098 18.2273 38.3163 18.4921 38.371 18.7478C38.4653 19.1849 38.5126 19.6309 38.5121 20.0781C38.5132 20.5382 38.4693 20.9972 38.3811 21.4488C38.3214 21.7048 38.4158 21.9722 38.6229 22.1341L39.9633 23.2527L38.6229 25.5606Z" fill="#12344D"/>
</svg>
