<svg width="116" height="116" viewBox="0 0 116 116" fill="none" xmlns="http://www.w3.org/2000/svg">
<path d="M87.7192 30.9952H10.6333C9.28774 30.9952 8.20508 32.0779 8.20508 33.4235V91.0523C8.20508 92.3979 9.28774 93.4806 10.6333 93.4806H87.7192C89.0648 93.4806 90.1475 92.3979 90.1475 91.0523V33.4235C90.1475 32.0779 89.0648 30.9952 87.7192 30.9952V30.9952Z" fill="#F2F2F2"/>
<path d="M12.2419 80.3494V42.8891M94.2617 80.3494V70.7446M66.0659 26.9739H91.787C92.4366 26.9739 93.0398 27.2369 93.4883 27.6854C93.9369 28.1339 94.1998 28.7526 94.1998 29.3867V64.9601" stroke="#525666" stroke-width="0.773333" stroke-linecap="round" stroke-linejoin="round"/>
<path d="M94.2461 80.3494V86.9846C94.2461 87.6342 93.9831 88.2528 93.5346 88.7168C93.0706 89.1654 92.4674 89.4128 91.8333 89.4128H14.6546C14.005 89.4128 13.3863 89.1499 12.9223 88.7168C12.4738 88.2528 12.2263 87.6342 12.2263 86.9846V80.3494H94.2461Z" fill="#BABCBE" stroke="#525666" stroke-width="0.773333" stroke-linecap="round" stroke-linejoin="round"/>
<path d="M80.7437 26.9739H14.5928C13.9587 26.9739 13.3555 27.2523 12.9069 27.7009C12.4584 28.1494 12.2109 28.7681 12.2109 29.4022V36.3622" stroke="#525666" stroke-width="0.773333" stroke-linecap="round" stroke-linejoin="round"/>
<path d="M72.7475 102.235H75.5161M30.8174 102.235H69.948M41.1646 92.7227V102.235M65.1843 92.7227V102.235" stroke="#525666" stroke-width="0.773333" stroke-linecap="round" stroke-linejoin="round"/>
<path d="M106.743 28.7835V25.4891C106.743 24.7157 106.109 24.0816 105.336 24.0816H102.892C102.737 23.6176 102.552 23.1845 102.335 22.7515L104.067 21.0192C104.624 20.4624 104.624 19.5653 104.067 19.024L101.794 16.7504C101.237 16.1936 100.34 16.1936 99.7831 16.7504L98.0508 18.5136C97.6177 18.2971 97.1692 18.1115 96.7207 17.9723V15.4976C96.7207 14.7243 96.0865 14.0901 95.3132 14.0901H92.0807C91.3073 14.0901 90.6732 14.7243 90.6732 15.4976V17.9877C90.2247 18.1269 89.7761 18.3125 89.3585 18.5291L87.5953 16.7504C87.0385 16.1936 86.126 16.1936 85.5847 16.7504L83.3884 19.0085C82.8471 19.5653 82.8471 20.4469 83.3884 20.9883L85.198 22.7979C84.9969 23.2 84.8268 23.6331 84.7031 24.0661H82.0273C81.254 24.0661 80.6199 24.7003 80.6199 25.4736V28.7216C80.6199 29.4949 81.254 30.1291 82.0273 30.1291H84.6257C84.7649 30.5467 84.9505 30.9643 85.1516 31.3664L83.2956 33.2224C82.7543 33.7637 82.7388 34.6608 83.2956 35.2021L85.4919 37.4603C86.0332 38.0171 86.9457 38.0325 87.5025 37.4757L89.3276 35.6661C89.7297 35.8517 90.1473 36.0219 90.5804 36.1611V38.7595C90.5804 39.5328 91.2145 40.167 91.9879 40.167H95.2204C95.9937 40.167 96.6279 39.5328 96.6279 38.7595V36.2075C97.0609 36.0683 97.494 35.8982 97.8961 35.6816L99.6903 37.4757C100.247 38.0325 101.144 38.0325 101.685 37.4757L103.99 35.1712C104.531 34.6299 104.547 33.7637 104.021 33.2069L102.381 31.4747C102.598 31.0571 102.768 30.624 102.923 30.1755H105.351C106.124 30.1755 106.759 29.5413 106.759 28.768L106.743 28.7835Z" fill="#B2D9CD"/>
<path d="M107.795 28.7216V24.9477C107.795 24.7931 107.764 24.6539 107.702 24.5147C107.64 24.3755 107.563 24.2517 107.455 24.1435C107.346 24.0352 107.223 23.9579 107.084 23.896C106.944 23.8341 106.79 23.8187 106.65 23.8187H103.913C103.774 23.3547 103.588 22.9061 103.372 22.4576L105.289 20.5397C105.398 20.4315 105.49 20.3077 105.552 20.1685C105.614 20.0293 105.645 19.8747 105.645 19.72C105.645 19.5653 105.614 19.4107 105.552 19.2715C105.49 19.1323 105.413 19.0085 105.289 18.9003L102.645 16.2555C102.536 16.1472 102.413 16.0544 102.273 15.9925C102.134 15.9307 101.98 15.8997 101.825 15.8997C101.67 15.8997 101.516 15.9307 101.376 15.9925C101.237 16.0544 101.113 16.1472 101.005 16.2555L99.0254 18.1733C98.6078 17.9877 98.1902 17.8331 97.7571 17.6939V14.9099C97.7571 14.6005 97.6334 14.3067 97.4169 14.1056C97.2003 13.8891 96.9065 13.7653 96.6126 13.7653H92.7769C92.4675 13.7653 92.1737 13.8891 91.9726 14.1056C91.7561 14.3221 91.6323 14.616 91.6323 14.9099V17.7093C91.1838 17.864 90.7507 18.0496 90.3331 18.2661L88.3689 16.3019C88.2606 16.1936 88.1369 16.1008 87.9977 16.0389C87.8585 15.9771 87.7038 15.9461 87.5491 15.9461C87.3945 15.9461 87.2398 15.9771 87.1006 16.0389C86.9614 16.1008 86.8377 16.1936 86.7294 16.3019L84.1465 18.9157C84.0382 19.024 83.9454 19.1477 83.8835 19.2869C83.8217 19.4261 83.7907 19.5808 83.7907 19.7355C83.7907 19.8901 83.8217 20.0448 83.8835 20.184C83.9454 20.3232 84.0227 20.4469 84.1465 20.5552L86.1262 22.6432C85.9251 23.0608 85.7395 23.4939 85.6003 23.9424H82.7854C82.4915 23.9424 82.1977 24.0661 81.9811 24.2672C81.7646 24.4837 81.6409 24.7621 81.6409 25.0715V28.8453C81.6409 29.1547 81.7646 29.4485 81.9811 29.6496C82.1977 29.8661 82.4915 29.9899 82.7854 29.9899H85.6467C85.8014 30.4075 85.9715 30.8251 86.1417 31.2427L84.0537 33.3307C83.9454 33.4389 83.8526 33.5627 83.7907 33.7019C83.7289 33.8411 83.6979 33.9957 83.6979 34.1504C83.6979 34.3051 83.7289 34.4597 83.7907 34.5989C83.8526 34.7381 83.9299 34.8619 84.0537 34.9701L86.6985 37.6459C86.915 37.8624 87.2089 37.9707 87.5182 37.9707C87.8275 37.9707 88.1214 37.8469 88.3379 37.6459L90.4259 35.5579C90.8281 35.7589 91.2302 35.9291 91.6633 36.0837V38.9141C91.6633 39.2235 91.787 39.5173 92.0035 39.7184C92.2201 39.9349 92.5139 40.0587 92.8078 40.0587H96.5817C96.891 40.0587 97.1849 39.9349 97.3859 39.7184C97.6025 39.5019 97.7262 39.208 97.7262 38.9141V35.9755C98.1593 35.8363 98.5923 35.6507 98.9945 35.4496L100.974 37.5376C101.191 37.7541 101.485 37.8624 101.794 37.8624C102.103 37.8624 102.397 37.7387 102.614 37.5376L105.289 34.7845C105.398 34.6763 105.49 34.5525 105.552 34.4133C105.614 34.2741 105.645 34.1195 105.645 33.9648C105.645 33.8101 105.614 33.6555 105.552 33.5163C105.49 33.3771 105.413 33.2533 105.289 33.1451L103.356 31.1808C103.573 30.7632 103.758 30.3301 103.897 29.8816H106.65C106.96 29.8816 107.254 29.7579 107.455 29.5413C107.671 29.3248 107.795 29.0309 107.795 28.7371V28.7216Z" stroke="#40A084" stroke-width="0.773333" stroke-linecap="round" stroke-linejoin="round"/>
<path d="M94.7103 32.3254C97.7085 32.3254 100.139 29.8948 100.139 26.8966C100.139 23.8983 97.7085 21.4678 94.7103 21.4678C91.7121 21.4678 89.2815 23.8983 89.2815 26.8966C89.2815 29.8948 91.7121 32.3254 94.7103 32.3254Z" fill="white"/>
<path d="M28.5899 39.7494H21.8155C21.4907 39.7494 21.2278 40.0123 21.2278 40.3371V44.8689C21.2278 45.1937 21.4907 45.4566 21.8155 45.4566H28.5899C28.9147 45.4566 29.1777 45.1937 29.1777 44.8689V40.3371C29.1777 40.0123 28.9147 39.7494 28.5899 39.7494Z" fill="white"/>
<path d="M28.5899 49.7718H21.8155C21.4907 49.7718 21.2278 50.0347 21.2278 50.3595V54.8913C21.2278 55.2161 21.4907 55.479 21.8155 55.479H28.5899C28.9147 55.479 29.1777 55.2161 29.1777 54.8913V50.3595C29.1777 50.0347 28.9147 49.7718 28.5899 49.7718Z" fill="white"/>
<path d="M28.5899 59.8096H21.8155C21.4907 59.8096 21.2278 60.0726 21.2278 60.3974V64.9291C21.2278 65.2539 21.4907 65.5168 21.8155 65.5168H28.5899C28.9147 65.5168 29.1777 65.2539 29.1777 64.9291V60.3974C29.1777 60.0726 28.9147 59.8096 28.5899 59.8096Z" fill="white"/>
<path d="M28.5899 69.832H21.8155C21.4907 69.832 21.2278 70.0949 21.2278 70.4197V74.9514C21.2278 75.2762 21.4907 75.5392 21.8155 75.5392H28.5899C28.9147 75.5392 29.1777 75.2762 29.1777 74.9514V70.4197C29.1777 70.0949 28.9147 69.832 28.5899 69.832Z" fill="white"/>
<path d="M78.2381 39.9659H34.7922C34.3822 39.9659 34.0498 40.2983 34.0498 40.7083V44.2965C34.0498 44.7066 34.3822 45.0389 34.7922 45.0389H78.2381C78.6481 45.0389 78.9805 44.7066 78.9805 44.2965V40.7083C78.9805 40.2983 78.6481 39.9659 78.2381 39.9659Z" fill="white"/>
<path d="M78.2381 48.2406H34.7922C34.3822 48.2406 34.0498 48.573 34.0498 48.983V74.9515C34.0498 75.3615 34.3822 75.6939 34.7922 75.6939H78.2381C78.6481 75.6939 78.9805 75.3615 78.9805 74.9515V48.983C78.9805 48.573 78.6481 48.2406 78.2381 48.2406Z" fill="white"/>
<path d="M28.018 38.3419H30.2452C30.3999 38.3419 30.5545 38.4037 30.6783 38.512C30.7865 38.6203 30.8639 38.7749 30.8639 38.9451V43.6005C30.8639 43.7552 30.802 43.9099 30.6783 44.0336C30.57 44.1419 30.4153 44.2037 30.2452 44.2037H22.3572C22.2025 44.2037 22.0479 44.1419 21.9241 44.0336C21.8159 43.9253 21.7385 43.7707 21.7385 43.6005V38.9451C21.7385 38.7904 21.8004 38.6357 21.9241 38.512C22.0324 38.4037 22.1871 38.3419 22.3572 38.3419H25.3423" stroke="#37ADC9" stroke-width="0.773333" stroke-linecap="round" stroke-linejoin="round"/>
<path d="M21.9087 38.5429H23.5482V44.0181H21.9087V38.5429Z" fill="#37ADC9" stroke="#37ADC9" stroke-width="0.773333" stroke-linecap="round" stroke-linejoin="round"/>
<path d="M28.018 48.3643H30.2452C30.3999 48.3643 30.5545 48.4261 30.6783 48.5344C30.7865 48.6427 30.8639 48.7973 30.8639 48.9675V53.6229C30.8639 53.7776 30.802 53.9323 30.6783 54.056C30.57 54.1643 30.4153 54.2261 30.2452 54.2261H22.3572C22.2025 54.2261 22.0479 54.1643 21.9241 54.056C21.8159 53.9477 21.7385 53.7931 21.7385 53.6229V48.9675C21.7385 48.8128 21.8004 48.6581 21.9241 48.5344C22.0324 48.4261 22.1871 48.3643 22.3572 48.3643H25.3423" stroke="#37ADC9" stroke-width="0.773333" stroke-linecap="round" stroke-linejoin="round"/>
<path d="M21.9087 48.5654H23.5482V54.0406H21.9087V48.5654Z" fill="#37ADC9" stroke="#37ADC9" stroke-width="0.773333" stroke-linecap="round" stroke-linejoin="round"/>
<path d="M28.018 58.3867H30.2452C30.3999 58.3867 30.5545 58.4485 30.6783 58.5568C30.7865 58.6651 30.8639 58.8197 30.8639 58.9899V63.6453C30.8639 63.8 30.802 63.9547 30.6783 64.0784C30.57 64.1867 30.4153 64.2485 30.2452 64.2485H22.3572C22.2025 64.2485 22.0479 64.1867 21.9241 64.0784C21.8159 63.9701 21.7385 63.8155 21.7385 63.6453V58.9899C21.7385 58.8352 21.8004 58.6805 21.9241 58.5568C22.0324 58.4485 22.1871 58.3867 22.3572 58.3867H25.3423" stroke="#37ADC9" stroke-width="0.773333" stroke-linecap="round" stroke-linejoin="round"/>
<path d="M21.9087 58.5877H23.5482V64.0629H21.9087V58.5877V58.5877Z" fill="#37ADC9" stroke="#37ADC9" stroke-width="0.773333" stroke-linecap="round" stroke-linejoin="round"/>
<path d="M28.018 68.4091H30.2452C30.3999 68.4091 30.5545 68.4709 30.6783 68.5792C30.7865 68.6875 30.8639 68.8421 30.8639 69.0123V73.6677C30.8639 73.8224 30.802 73.9771 30.6783 74.1008C30.57 74.2091 30.4153 74.2709 30.2452 74.2709H22.3572C22.2025 74.2709 22.0479 74.2091 21.9241 74.1008C21.8159 73.9925 21.7385 73.8379 21.7385 73.6677V69.0123C21.7385 68.8576 21.8004 68.7029 21.9241 68.5792C22.0324 68.4709 22.1871 68.4091 22.3572 68.4091H25.3423" stroke="#37ADC9" stroke-width="0.773333" stroke-linecap="round" stroke-linejoin="round"/>
<path d="M21.9087 68.6101H23.5482V74.0853H21.9087V68.6101Z" fill="#37ADC9" stroke="#37ADC9" stroke-width="0.773333" stroke-linecap="round" stroke-linejoin="round"/>
<path d="M79.4292 38.5429H35.8906C35.5062 38.5429 35.1946 38.8545 35.1946 39.2389V42.92C35.1946 43.3044 35.5062 43.616 35.8906 43.616H79.4292C79.8136 43.616 80.1252 43.3044 80.1252 42.92V39.2389C80.1252 38.8545 79.8136 38.5429 79.4292 38.5429Z" stroke="#37ADC9" stroke-width="0.773333" stroke-linecap="round" stroke-linejoin="round"/>
<path d="M79.4292 46.8176H35.8906C35.5062 46.8176 35.1946 47.1292 35.1946 47.5136V73.575C35.1946 73.9593 35.5062 74.271 35.8906 74.271H79.4292C79.8136 74.271 80.1252 73.9593 80.1252 73.575V47.5136C80.1252 47.1292 79.8136 46.8176 79.4292 46.8176Z" stroke="#37ADC9" stroke-width="0.757867" stroke-linecap="round" stroke-linejoin="round"/>
</svg>
