<svg width="40" height="40" viewBox="0 0 40 40" fill="none" xmlns="http://www.w3.org/2000/svg">
<path d="M20.0781 30.1562C19.5857 30.1547 19.0941 30.1209 18.6068 30.0495C17.704 29.9174 16.8199 29.6616 15.9863 29.2907C14.987 28.8463 14.0621 28.2376 13.2572 27.4972C12.4247 26.7314 11.7219 25.826 11.188 24.8288C10.7312 23.9756 10.3989 23.0566 10.2049 22.1085C9.98235 21.021 9.94111 19.8965 10.0811 18.7954C10.2119 17.7664 10.503 16.7589 10.9418 15.819C11.4469 14.7374 12.1457 13.7482 12.9948 12.9092C13.8879 12.0267 14.9451 11.3126 16.0986 10.8163C16.7253 10.5468 17.3794 10.3415 18.0478 10.2047C18.6729 10.0768 19.31 10.0089 19.948 10.0008C20.5888 9.99271 21.2304 10.0447 21.8613 10.1574C22.5348 10.2777 23.1958 10.4671 23.8307 10.722C24.9973 11.1903 26.0726 11.8795 26.9875 12.7414C27.8556 13.5592 28.5774 14.5305 29.1082 15.5987C29.5685 16.5249 29.8838 17.5218 30.04 18.5442C30.2045 19.6212 30.1944 20.7254 30.0096 21.7992C29.8449 22.7561 29.5403 23.688 29.1082 24.5576C28.6043 25.5715 27.9284 26.4984 27.1183 27.2894C26.3076 28.081 25.3639 28.7351 24.3371 29.2145C23.4931 29.6086 22.5945 29.8839 21.6746 30.0304C21.2107 30.1043 20.7426 30.144 20.2731 30.1544C20.2081 30.1554 20.1431 30.156 20.0781 30.1562ZM20.0781 28.8125C20.5054 28.8111 20.9319 28.7818 21.3548 28.7199C22.1365 28.6055 22.902 28.384 23.6238 28.063C24.506 27.6706 25.3212 27.1304 26.0278 26.4726C26.7458 25.8042 27.3506 25.0155 27.8084 24.1478C28.1912 23.4223 28.4704 22.6428 28.6349 21.8391C28.8316 20.8777 28.8649 19.8828 28.735 18.9102C28.6186 18.0381 28.369 17.1848 27.9968 16.3875C27.559 15.4498 26.953 14.5924 26.217 13.865C25.4428 13.1 24.5264 12.4809 23.5265 12.0507C22.4747 11.5982 21.3359 11.359 20.1912 11.3445C19.042 11.3299 17.8929 11.5408 16.8261 11.9691C15.8312 12.3684 14.913 12.9532 14.1284 13.6836C13.3587 14.4001 12.7194 15.2549 12.2514 16.1967C11.8528 16.9987 11.5798 17.8618 11.4446 18.7471C11.299 19.6995 11.3109 20.6766 11.4803 21.625C11.6281 22.4521 11.8966 23.2568 12.2751 24.0069C12.7093 24.8675 13.287 25.6545 13.9766 26.3279C14.6668 27.0018 15.468 27.5609 16.3396 27.9744C17.0513 28.312 17.8087 28.5519 18.585 28.6855C19.004 28.7576 19.4274 28.7975 19.8523 28.8096C19.9276 28.8113 20.0028 28.8123 20.0781 28.8125ZM22.5557 22.5816C22.6024 22.6573 22.6458 22.7352 22.6854 22.8149C22.8186 23.0828 22.9099 23.3712 22.9551 23.667C23.0017 23.9719 22.9998 24.2842 22.9493 24.5884C22.9043 24.8598 22.8204 25.1245 22.7009 25.3722C22.4158 25.9631 21.9301 26.4484 21.339 26.733C21.0913 26.8524 20.8266 26.9361 20.5553 26.9811C20.4216 27.0032 20.2869 27.0151 20.1516 27.0194C20.114 27.0201 20.1142 27.0201 20.0768 27.0203C19.9408 27.0195 19.8053 27.011 19.6706 26.9921C19.3974 26.9539 19.13 26.8765 18.8786 26.7629C18.2808 26.4928 17.7835 26.0192 17.4841 25.4355C17.359 25.1914 17.2687 24.9296 17.217 24.6601C17.159 24.3574 17.1494 24.0454 17.1883 23.7396C17.2261 23.4419 17.3104 23.1505 17.4374 22.8786C17.5858 22.5609 17.7921 22.2709 18.043 22.026C18.3026 21.7726 18.6094 21.5682 18.9435 21.4269C19.2897 21.2805 19.6636 21.2029 20.0393 21.1981C20.4163 21.1933 20.7934 21.2617 21.1442 21.4C21.302 21.4622 21.4541 21.5384 21.5986 21.6271C22.5596 20.6387 23.5535 19.6824 24.5283 18.7076C24.5496 18.6872 24.571 18.6676 24.5944 18.6496C24.6487 18.608 24.7093 18.5747 24.7736 18.5513C24.8563 18.5212 24.9448 18.5076 25.0327 18.5114C25.1108 18.5148 25.1883 18.532 25.2605 18.5619C25.3237 18.5881 25.3829 18.624 25.4353 18.668C25.5862 18.7946 25.6753 18.9856 25.6753 19.1826C25.6753 19.2413 25.6676 19.2999 25.6524 19.3565C25.6321 19.4321 25.5986 19.504 25.5538 19.568C25.5369 19.5922 25.5182 19.6144 25.4988 19.6366C24.539 20.6391 23.5403 21.6035 22.5557 22.5816ZM20.0768 25.6766C20.299 25.6752 20.5187 25.6301 20.7215 25.5384C21.0264 25.4006 21.2835 25.1643 21.4468 24.8724C21.5184 24.7446 21.5717 24.6067 21.6047 24.464C21.6467 24.2826 21.6557 24.0938 21.6322 23.9092C21.6127 23.7558 21.5703 23.6055 21.5066 23.4646C21.4286 23.2923 21.3191 23.1346 21.1854 23.0009C21.0471 22.8627 20.8832 22.7504 20.7041 22.6721C20.513 22.5885 20.3057 22.5444 20.0972 22.5418C19.8878 22.5391 19.6785 22.578 19.4845 22.6572C19.3034 22.7312 19.1368 22.8396 18.9952 22.9745C18.8583 23.1049 18.7451 23.2599 18.663 23.4302C18.5961 23.569 18.55 23.7177 18.5268 23.8701C18.4996 24.0478 18.5028 24.2303 18.5367 24.4069C18.5644 24.5513 18.6128 24.6915 18.6798 24.8223C18.8354 25.1256 19.0904 25.3744 19.3976 25.5223C19.5973 25.6185 19.8148 25.6691 20.036 25.6761C20.0565 25.6764 20.0564 25.6764 20.0768 25.6766ZM26.0195 18.0665C26.001 18.0656 25.9825 18.0655 25.964 18.0639C25.9271 18.0606 25.8906 18.0542 25.8547 18.0449C25.7108 18.0075 25.5815 17.9219 25.4909 17.804C25.4571 17.76 25.4317 17.712 25.4056 17.6633C25.3843 17.6238 25.3784 17.6135 25.3566 17.5742C25.3316 17.53 25.3062 17.4861 25.2805 17.4423C25.1588 17.2395 25.0273 17.0432 24.8836 16.8554C24.5665 16.4409 24.196 16.0675 23.7839 15.7474C23.2748 15.3519 22.7027 15.0383 22.0949 14.8233C21.1946 14.5049 20.2202 14.406 19.2738 14.5315C18.8268 14.5908 18.3867 14.7004 17.9643 14.858C17.2507 15.1243 16.5899 15.5272 16.0249 16.0378C15.6628 16.365 15.3401 16.7359 15.0664 17.14C14.9425 17.3228 14.8297 17.5125 14.7256 17.7073L14.6974 17.7551C14.669 17.7954 14.663 17.8065 14.6297 17.8431C14.5799 17.8978 14.5209 17.9442 14.4559 17.9798C14.391 18.0154 14.3201 18.0402 14.2471 18.0527C14.1924 18.0622 14.1365 18.0648 14.0811 18.0605C13.8762 18.0446 13.6859 17.9325 13.5725 17.7611C13.5317 17.6992 13.5012 17.6307 13.4826 17.559C13.4501 17.4332 13.4549 17.2989 13.4965 17.1758C13.5123 17.129 13.5191 17.1184 13.5405 17.074C13.5693 17.02 13.5986 16.9663 13.6284 16.9128C13.7608 16.6794 13.9037 16.4525 14.0598 16.2341C14.4061 15.7495 14.8109 15.3068 15.2626 14.9186C15.9376 14.3385 16.7169 13.8813 17.5535 13.5773C18.6693 13.1718 19.8802 13.0435 21.0568 13.1994C21.646 13.2775 22.2254 13.4271 22.7786 13.6444C23.53 13.9395 24.2315 14.3591 24.8478 14.8804C25.3344 15.292 25.7676 15.7662 26.1333 16.2881C26.2995 16.5251 26.4504 16.772 26.5886 17.0262L26.6166 17.0786C26.6379 17.123 26.6448 17.1336 26.6605 17.1805C26.6782 17.2331 26.6894 17.288 26.6936 17.3434C26.6978 17.3987 26.6952 17.4546 26.6857 17.5094C26.6506 17.7119 26.5212 17.8908 26.3398 17.9875C26.2907 18.0137 26.2385 18.0337 26.1846 18.047C26.1366 18.0588 26.124 18.0588 26.075 18.0646C26.0565 18.0652 26.038 18.0659 26.0195 18.0665Z" fill="#BBDCFE"/>
</svg>
