<svg width="13" height="12" viewBox="0 0 13 12" fill="none" xmlns="http://www.w3.org/2000/svg">
<g id="Frame 626543">
<path id="Path" fill-rule="evenodd" clip-rule="evenodd" d="M11.4 5.83714C11.0686 5.83714 10.8 6.10577 10.8 6.43714V9.94286C10.8 10.4162 10.4162 10.8 9.94286 10.8H2.05714C1.58376 10.8 1.2 10.4162 1.2 9.94286V2.05714C1.2 1.58376 1.58376 1.2 2.05714 1.2H5.56286C5.77722 1.2 5.97529 1.08564 6.08247 0.9C6.18965 0.714359 6.18965 0.485641 6.08247 0.3C5.97529 0.114359 5.77722 -3.1942e-09 5.56286 0H2.05714C0.922965 0.00469645 0.00469645 0.922965 0 2.05714V9.94286C0.00469645 11.077 0.922965 11.9953 2.05714 12H9.94286C11.077 11.9953 11.9953 11.077 12 9.94286V6.43714C12 6.10577 11.7314 5.83714 11.4 5.83714Z" fill="#2C5CC5"/>
<path id="Path_2" fill-rule="evenodd" clip-rule="evenodd" d="M12.0002 0.369009C11.9385 0.221955 11.8215 0.104996 11.6745 0.0432942C11.5866 0.0117657 11.4935 -0.00277786 11.4002 0.000437096H8.47733C8.14596 0.000437096 7.87733 0.269066 7.87733 0.600437C7.87733 0.931808 8.14596 1.20044 8.47733 1.20044H9.95161L3.09447 8.05758C2.85914 8.29483 2.85914 8.67747 3.09447 8.91472C3.33172 9.15006 3.71436 9.15006 3.95161 8.91472L10.8088 2.05758V3.52329C10.8088 3.85466 11.0774 4.12329 11.4088 4.12329C11.7401 4.12329 12.0088 3.85466 12.0088 3.52329V0.600437C12.0181 0.523324 12.0152 0.445218 12.0002 0.369009V0.369009Z" fill="#2C5CC5"/>
</g>
</svg>
