<svg width="32" height="32" viewBox="0 0 32 32" fill="none" xmlns="http://www.w3.org/2000/svg">
<g id="reporting">
<g id="Page 3">
<g id="nav reports">
<path id="Shape" d="M22.4062 6H9.28125C7.46907 6 6 7.46907 6 9.28125V22.4062C6 24.2184 7.46907 25.6875 9.28125 25.6875H22.4062C24.2184 25.6875 25.6875 24.2184 25.6875 22.4062V9.28125C25.6875 7.46907 24.2184 6 22.4062 6ZM24.1564 22.4062C24.1622 22.8722 23.9797 23.3207 23.6502 23.6502C23.3207 23.9797 22.8722 24.1622 22.4062 24.1564H9.28125C8.81533 24.1622 8.36675 23.9797 8.03727 23.6502C7.70778 23.3207 7.52531 22.8722 7.53111 22.4062V9.28125C7.52531 8.81533 7.70778 8.36675 8.03727 8.03727C8.36675 7.70778 8.81533 7.52531 9.28125 7.53111H22.4062C22.8722 7.52531 23.3207 7.70778 23.6502 8.03727C23.9797 8.36675 24.1622 8.81533 24.1564 9.28125V22.4062ZM21.3125 14.8484V20.5687C21.3125 20.9916 20.9697 21.3344 20.5469 21.3344C20.124 21.3344 19.7812 20.9916 19.7812 20.5687V14.8484C19.7812 14.4256 20.124 14.0828 20.5469 14.0828C20.9697 14.0828 21.3125 14.4256 21.3125 14.8484ZM16.6094 11.1187V20.5687C16.6094 20.9916 16.2666 21.3344 15.8438 21.3344C15.4209 21.3344 15.0781 20.9916 15.0781 20.5687V11.1187C15.0781 10.6959 15.4209 10.3531 15.8438 10.3531C16.2666 10.3531 16.6094 10.6959 16.6094 11.1187ZM11.8844 16.5875V20.5687C11.8844 20.9916 11.5416 21.3344 11.1187 21.3344C10.6959 21.3344 10.3531 20.9916 10.3531 20.5687V16.5875C10.3531 16.1647 10.6959 15.8219 11.1187 15.8219C11.5416 15.8219 11.8844 16.1647 11.8844 16.5875Z" fill="#BBDCFE"/>
</g>
</g>
</g>
</svg>
