<svg width="76" height="76" viewBox="0 0 76 76" fill="none" xmlns="http://www.w3.org/2000/svg">
<g id="Frame 626542">
<g id="Rectangle 1632" filter="url(#filter0_d_7245_305494)">
<rect x="6" y="5" width="64" height="64" rx="8" fill="white"/>
<rect x="6.5" y="5.5" width="63" height="63" rx="7.5" stroke="#EBEFF3"/>
</g>
<path id="Vector" d="M19 37.5844H27.7831L32.867 27.9705L38.8806 37.5844L45.2305 33.0939L49.9781 37.5844H57.0006" stroke="#5DBD77" stroke-width="1.8" stroke-linecap="round" stroke-linejoin="round"/>
<path id="Vector_2" d="M20.2466 43.7551C21.5522 47.1773 23.8073 50.1445 26.735 52.3007C29.8803 54.6152 33.7772 55.9999 37.9907 55.9999C45.8441 55.9999 52.5698 51.2325 55.4579 44.4474" stroke="#4A5866" stroke-width="1.8" stroke-linecap="round" stroke-linejoin="round"/>
<path id="Vector_3" d="M20.1704 30.4229C22.8409 23.163 29.8239 18 37.9937 18H52.2365C54.8674 18 56.9841 20.1364 56.9841 22.7476V30.4229" stroke="#4A5866" stroke-width="1.8" stroke-linecap="round" stroke-linejoin="round"/>
</g>
<defs>
<filter id="filter0_d_7245_305494" x="0" y="0" width="76" height="76" filterUnits="userSpaceOnUse" color-interpolation-filters="sRGB">
<feFlood flood-opacity="0" result="BackgroundImageFix"/>
<feColorMatrix in="SourceAlpha" type="matrix" values="0 0 0 0 0 0 0 0 0 0 0 0 0 0 0 0 0 0 127 0" result="hardAlpha"/>
<feOffset dy="1"/>
<feGaussianBlur stdDeviation="3"/>
<feColorMatrix type="matrix" values="0 0 0 0 0.0863 0 0 0 0 0.1137 0 0 0 0 0.1451 0 0 0 0.05 0"/>
<feBlend mode="normal" in2="BackgroundImageFix" result="effect1_dropShadow_7245_305494"/>
<feBlend mode="normal" in="SourceGraphic" in2="effect1_dropShadow_7245_305494" result="shape"/>
</filter>
</defs>
</svg>
