<svg width="40" height="40" viewBox="0 0 40 40" fill="none" xmlns="http://www.w3.org/2000/svg">
<path d="M27.7108 13C29.0614 13 30.1562 14.1386 30.1562 15.5432V17.2985L29.5044 17.672C28.8154 18.0667 28.3926 18.7772 28.3926 19.5508C28.3926 20.3244 28.8154 21.0348 29.5044 21.4296L30.1562 21.8031V23.5583C30.1562 24.9629 29.0614 26.1016 27.7108 26.1016H12.4454C11.0949 26.1016 10 24.9629 10 23.5583V21.8031L10.6519 21.4296C11.3408 21.0348 11.7637 20.3244 11.7637 19.5508C11.7637 18.7772 11.3408 18.0667 10.6519 17.672L10 17.2985V15.5432C10 14.1386 11.0949 13 12.4454 13H27.7108ZM27.7108 14.3102H12.4454C11.7906 14.3102 11.2598 14.8622 11.2598 15.5432V16.5244C12.3141 17.1285 13.0234 18.2576 13.0234 19.5508C13.0234 20.844 12.3141 21.973 11.2598 22.5771V23.5583C11.2598 24.2393 11.7906 24.7914 12.4454 24.7914H27.7108C28.3656 24.7914 28.8965 24.2393 28.8965 23.5583V22.5771C27.8422 21.973 27.1328 20.844 27.1328 19.5508C27.1328 18.2576 27.8422 17.1285 28.8965 16.5244V15.5432C28.8965 14.8622 28.3656 14.3102 27.7108 14.3102ZM23.3016 16.1381C24.6522 16.1381 25.7471 17.2768 25.7471 18.6814V20.4077C25.7471 21.8123 24.6522 22.9509 23.3016 22.9509H16.8546C15.504 22.9509 14.4092 21.8123 14.4092 20.4077V18.6814C14.4092 17.2768 15.504 16.1381 16.8546 16.1381H23.3016ZM23.3016 17.4483H16.8546C16.1998 17.4483 15.6689 18.0003 15.6689 18.6814V20.4077C15.6689 21.0887 16.1998 21.6408 16.8546 21.6408H23.3016C23.9565 21.6408 24.4873 21.0887 24.4873 20.4077V18.6814C24.4873 18.0003 23.9565 17.4483 23.3016 17.4483Z" fill="#BBDCFE"/>
</svg>
